# xmcd CD database file
#
# Track frame offsets:
#	150
#	18357
#	38397
#	57792
#	78575
#	98512
#	127322
#	155762
#	166417
#	188107
#
# Disc length: 2819 seconds
#
# Revision: 1
# Processed by: cddbd v1.4PL0 Copyright (c) Steve Scherf et al.
# Submitted via: CDex 1.50
#
DISCID=770b010a
DTITLE=Enzo Avitabile - Enzo Avitabile
DYEAR=1991
DGENRE=Blues
TTITLE0=Si fa tardi
TTITLE1=In non ci resito piu'
TTITLE2=Accendi il tuo sole
TTITLE3=Dammi dammi
TTITLE4=La mia storia
TTITLE5=Per te
TTITLE6=Vide c'o' tengo
TTITLE7=Negli occhi solo tu
TTITLE8=Colonizzati
TTITLE9=La pioggia mai
EXTD=YEAR: 1991
EXTT0=
EXTT1=
EXTT2=
EXTT3=
EXTT4=
EXTT5=
EXTT6=
EXTT7=
EXTT8=
EXTT9=
PLAYORDER=
